<svg viewBox="0 0 512 512" xmlns="http://www.w3.org/2000/svg"><path d="m471.95 253.05c0 120.9-98.01 218.9-218.9 218.9-120.9 0-218.9-98.01-218.9-218.9 0-120.9 98.01-218.9 218.9-218.9 120.9 0 218.9 98.01 218.9 218.9" fill="#3771c8" fill-rule="evenodd"/><path d="m286.53 109.44c-51.55 0-69.69 25.927-69.69 69.56v29.563h-34.594v56.03h1v1h1v1h1v1h1v1h.969v1h1v.969h1v1h1v1h1v1h1v1h.969v1h1v.969h1v1h1v1h1v1h1v1h.969v1h1v1h1v.969h1v1h1v1h1v1h.969v1h1v1h1v.969h1v1h1v1h1v1h1v1h.969v1h1v.969h1v1h1v1h1v1h.75v104.13h1v1h1v1h.969v1h1v1h1v1h1v1h1v.969h1v1h1v1h.969v1h1v1h1v1h1v.969h1v1h1v1h.969v1h1v1h1v1h1v.969h1v1h1v1h.969v1h1v1h1v1h1v.969h1v1h1v1h.969v1h1v1h1v1h1v1h1v.969h1v1h1v1h.969v1h1v1h1v1h1v.969h1v1h1v1h.969v1h1v1h1v1h1v.969h1v1h1v1h.969v1h1v1h1v1h1v1h1v.969h1v1h1v1h.969v1h1v1h1v1h1v.969h1v1h1v1h.969v1h1v1h1v1h1v.969h1v1h1v1h.969v1h1v1h1v.438c105.99-15.255 187.44-106.41 187.44-216.62v-.344h-.219v-1h-.969v-1h-1v-1h-1v-1h-1v-1h-1v-.969h-1v-1h-.969v-1h-1v-1h-1v-1h-1v-1h-1v-.969h-1v-1h-.969v-1h-1v-1h-1v-1h-1v-1h-1v-1h-1v-.969h-1v-1h-.969v-1h-1v-1h-1v-1h-1v-1h-1v-.969h-1v-1h-.969v-1h-1v-1h-1v-1h-1v-1h-1v-.969h-1v-1h-.969v-1h-1v-1h-1v-1h-1v-1h-1v-.969h-1v-1h-.969v-1h-1v-1h-1v-1h-1v-1h-1v-1h-1v-.969h-1v-1h-.969v-1h-1v-1h-1v-1h-1v-1h-1v-.969h-1v-1h-.98v-1h-1v-1h-1v-1h-1v-1h-1v-.969h-1v-1h-.969v-1h-1v-1h-1v-1h-1v-1h-1v-1h-1v-.969h-1v-1h-.969v-1h-1v-1h-1v-1h-1v-1h-1v-.969h-1v-1h-.969v-1h-1v-1h-1v-1h-1v-1h-1v-.969h-1v-1h-.969v-1h-1v-1h-1v-1h-1v-1h-1v-.969h-1v-1h-.969v-1h-1v-1h-1v-1h-1v-1h-1v-1h-1v-.969h-1v-1h-.969v-1h-1v-1h-1v-1h-1v-1h-1v-.969h-1v-1h-.969v-1h-1v-1h-1v-1h-1v-1h-1v-.969h-1v-1h-.969v-1h-1v-1h-1v-1h-1v-1h-1v-1h-1v-.969h-1v-1h-.969v-1h-1v-1h-1v-1h-1v-1h-1v-.969h-1v-1h-.969v-1h-1v-1h-1v-1h-1v-1h-1v-.969h-1v-1h-.969v-1h-1v-1h-1v-1h-1v-1h-1v-.969h-1v-1h-.969v-1h-1v-1h-1v-1h-1v-1h-1v-1h-1v-.969h-1v-1h-.969v-1h-1v-1h-1v-1h-1v-1h-1v-.969h-1v-1h-.969v-1h-1v-1h-1v-1h-1v-1h-1v-.969h-42.906" fill-opacity=".235"/><g fill-rule="evenodd"><path d="m256 1c-140.83 0-255 114.17-255 255s114.17 255 255 255 255-114.17 255-255-114.17-255-255-255m8.827 44.931c120.9 0 218.9 98 218.9 218.9s-98 218.9-218.9 218.9-218.93-98-218.93-218.9 98.03-218.9 218.93-218.9" fill-opacity=".067"/><g fill-opacity=".129"><path d="m256 4.433c-138.94 0-251.57 112.63-251.57 251.57s112.63 251.57 251.57 251.57 251.57-112.63 251.57-251.57-112.63-251.57-251.57-251.57m5.885 38.556c120.9 0 218.9 98 218.9 218.9s-98 218.9-218.9 218.9-218.93-98-218.93-218.9 98.03-218.9 218.93-218.9"/><path d="m256 8.356c-136.77 0-247.64 110.87-247.64 247.64s110.87 247.64 247.64 247.64 247.64-110.87 247.64-247.64-110.87-247.64-247.64-247.64m2.942 31.691c120.9 0 218.9 98 218.9 218.9s-98 218.9-218.9 218.9-218.93-98-218.93-218.9 98.03-218.9 218.93-218.9"/></g><path d="m253.04 7.859c-135.42 0-245.19 109.78-245.19 245.19 0 135.42 109.78 245.19 245.19 245.19 135.42 0 245.19-109.78 245.19-245.19 0-135.42-109.78-245.19-245.19-245.19zm0 26.297c120.9 0 218.9 98 218.9 218.9s-98 218.9-218.9 218.9-218.93-98-218.93-218.9 98.03-218.9 218.93-218.9z" fill="#fff" stroke="#000" stroke-opacity=".31" stroke-width="4.904"/></g><text x="729.64001" y="231.36"><tspan x="729.64001" y="231.36"/></text><text transform="scale(4.0128 .2492)" x="378.91" y="579.25"/><text x="1310.91" y="151.36"><tspan x="1310.91" y="151.36"/></text><text transform="scale(4.0128 .2492)" x="523.76001" y="258.22"/><text x="239.33" y="-29.900999"><tspan x="239.33" y="-29.900999"/></text><text transform="scale(4.0128 .2492)" x="256.72" y="-469.14001"/><text x="1337.38" y="-246.37"><tspan x="1337.38" y="-246.37"/></text><text transform="scale(4.0128 .2492)" x="530.35999" y="-1337.8101"/><text x="1918.65" y="-326.38"><tspan x="1918.65" y="-326.38"/></text><text transform="scale(4.0128 .2492)" x="675.21002" y="-1658.85"/><text x="1529.53" y="-798.78003"><tspan x="1529.53" y="-798.78003"/></text><text transform="scale(4.0128 .2492)" x="578.23999" y="-3554.51"/><text x="2110.79" y="-878.78003"><tspan x="2110.79" y="-878.78003"/></text><text transform="scale(4.0128 .2492)" x="723.09003" y="-3875.54"/><text x="277.98999" y="535.94"><tspan x="277.98999" y="535.94"/></text><path d="m281.15 402.58h-64.31v-137.97h-34.588v-56.03h34.588v-29.573c0-43.635 18.14-69.58 69.68-69.58h42.917v53.5h-26.825c-20.07 0-21.39 7.474-21.39 21.428l-.079 24.23h48.596l-5.686 56.03h-42.91z" fill="#fff"/></svg>